# xmcd
#
# Track frame offsets:
#  150
#  39944
#  68680
#  85577
#  99417
#  136746
#  168476
#  211500
#  224237
#  238957
#  275199
#  288352
#
# Disc length: 4149 seconds
#
# Revision: 0
# Processed by: cddbd v1.5.1PL2 Copyright (c) Steve Scherf et al.
# Submitted via: Collectorz.com_Music_Collector 6.9
#
DISCID=ae10330c
DTITLE=Dr. Jeffrey Thompson - Brainwave Symphony - Unwind and Sleep (2003)
DYEAR=2003
DGENRE=Easy Listening - Jazz
TTITLE0=Planets Suite Venus - Bringer Of Peace, The
TTITLE1=Suite For String Orchestra - Nocturne
TTITLE2=Marche Funebre - Lento, Excerpt
TTITLE3=Calm Sea and Prosperous Voyage, Op. 27
TTITLE4=Planets Suite - Neptune, The Mystic, The
TTITLE5=Adagio For Strings
TTITLE6=Adagio In G Minor
TTITLE7=Symphony No. 4 In C. Minor - Andantte
TTITLE8=Symphony No. 5 In B - Flat Major, Andante
TTITLE9=Violin Concerto In E Minor - Andante
TTITLE10=Lady Radnor's Suite - Slow Minuet
TTITLE11=Sospiri, Op. 70
EXTD=
EXTT0=
EXTT1=
EXTT2=
EXTT3=
EXTT4=
EXTT5=
EXTT6=
EXTT7=
EXTT8=
EXTT9=
EXTT10=
EXTT11=
PLAYORDER=
